<svg width="312" height="351" viewBox="0 0 312 351" fill="none" xmlns="http://www.w3.org/2000/svg">
<rect x="102.777" y="15.7462" width="104" height="111.536" fill="#FF4500"/>
<rect x="155.388" y="127.282" width="104" height="111.536" fill="#1E1E1E"/>
<rect x="208" y="238.819" width="104" height="111.536" fill="#3DB70C"/>
<rect y="238.819" width="104" height="111.536" fill="#FF4500"/>
<rect x="51.3882" y="127.282" width="104" height="111.536" fill="#3DB70C"/>
<rect x="104" y="238.819" width="104" height="111.536" fill="#F7EAD6"/>
<path d="M132.876 106V30.192H180.853V44.7306H147.934V59.8921H158.111C163.372 59.8921 167.942 60.8614 171.819 62.7998C175.695 64.6691 178.707 67.3345 180.853 70.796C183.069 74.1883 184.176 78.2037 184.176 82.8422C184.176 87.4807 183.069 91.5307 180.853 94.9923C178.707 98.4538 175.695 101.154 171.819 103.092C167.942 105.031 163.407 106 158.215 106H132.876ZM147.934 93.0192H158.215C161.399 93.0192 163.926 92.1192 165.795 90.3192C167.665 88.5192 168.599 86.0961 168.599 83.0499C168.599 79.9345 167.665 77.4768 165.795 75.6768C163.926 73.8076 161.399 72.873 158.215 72.873H147.934V93.0192Z" fill="#F7EAD6"/>
<path d="M75.695 228.139V200.308H78.9143C79.6758 199.062 80.472 197.366 81.3027 195.22C82.2027 193.004 82.9643 190.477 83.5874 187.639C84.2104 184.731 84.522 181.616 84.522 178.293L85.1451 137.792H127.203V200.308H133.434V228.139H118.895V213.6H90.2335V228.139H75.695ZM94.1797 200.308H112.664V151.085H99.4759L99.0605 178.189C98.9913 183.035 98.4028 187.466 97.2951 191.481C96.1874 195.427 95.1489 198.37 94.1797 200.308Z" fill="#1E1E1E"/>
<path d="M29.2944 329.073V314.431L53.3868 291.169C56.2253 288.4 58.3368 285.838 59.7214 283.484C61.1753 281.131 61.9022 278.569 61.9022 275.8C61.9022 272.754 61.0714 270.4 59.4099 268.738C57.8176 267.077 55.6022 266.246 52.7637 266.246C49.6483 266.246 47.1906 267.18 45.3906 269.05C43.6598 270.85 42.7945 273.377 42.7945 276.631H27.2175C27.2175 271.646 28.2559 267.354 30.3329 263.754C32.479 260.084 35.4906 257.246 39.3675 255.238C43.2445 253.23 47.8137 252.227 53.0753 252.227C57.9907 252.227 62.2484 253.161 65.8484 255.03C69.5176 256.83 72.3561 259.357 74.3638 262.611C76.4407 265.865 77.4792 269.707 77.4792 274.138C77.4792 279.054 76.2676 283.761 73.8446 288.261C71.4215 292.761 67.5445 297.469 62.2138 302.384L48.506 315.054H78.31V329.073H29.2944Z" fill="#1E1E1E"/>
<path d="M156.546 330.308C149 330.308 143.012 328.439 138.581 324.7C134.15 320.962 131.865 315.908 131.727 309.539H147.304C147.442 311.823 148.308 313.623 149.9 314.939C151.492 316.185 153.708 316.808 156.546 316.808C159.592 316.808 161.912 316.046 163.504 314.523C165.165 312.931 165.996 310.75 165.996 307.981V300.608C165.996 297.769 165.2 295.623 163.608 294.169C162.015 292.646 159.662 291.885 156.546 291.885C154.677 291.885 153.05 292.162 151.665 292.715C150.35 293.2 149.312 293.962 148.55 295H133.492L134.012 253.461H178.769V267.481H148.654L148.446 287.212H151.665L148.342 289.808C148.342 286.623 149.554 284.131 151.977 282.331C154.469 280.462 157.827 279.527 162.05 279.527C168.212 279.527 172.989 281.396 176.381 285.135C179.842 288.804 181.573 293.962 181.573 300.608V307.981C181.573 314.904 179.358 320.373 174.927 324.389C170.496 328.335 164.369 330.308 156.546 330.308Z" fill="#FF4500"/>
<path d="M245.161 329.073L272.68 267.804H251.496V278.707H235.919V253.265H288.361V267.804L261.776 329.073H245.161Z" fill="#FF4500"/>
<path d="M204.894 222.511C199.633 222.511 195.029 221.646 191.083 219.915C187.136 218.184 184.021 215.726 181.736 212.542C179.452 209.357 178.171 205.584 177.894 201.223H193.471C193.748 203.646 194.89 205.55 196.898 206.934C198.975 208.319 201.64 209.011 204.894 209.011C208.287 209.011 211.021 208.111 213.098 206.311C215.244 204.442 216.317 202.123 216.317 199.353C216.317 196.446 215.313 194.126 213.306 192.396C211.298 190.665 208.494 189.799 204.894 189.799H193.99V175.78H204.894C208.356 175.78 211.056 174.88 212.994 173.08C214.933 171.211 215.902 168.996 215.902 166.434C215.902 163.803 214.898 161.761 212.89 160.307C210.952 158.853 208.287 158.126 204.894 158.126C202.056 158.126 199.667 158.819 197.729 160.203C195.79 161.588 194.579 163.492 194.094 165.915H178.517C178.933 161.553 180.317 157.78 182.671 154.595C185.025 151.411 188.14 148.953 192.017 147.222C195.963 145.492 200.463 144.626 205.517 144.626C213.133 144.626 219.19 146.253 223.69 149.507C228.26 152.761 230.544 157.226 230.544 162.903C230.544 166.572 229.714 169.826 228.052 172.665C226.46 175.434 224.14 177.615 221.094 179.207C218.048 180.73 214.379 181.492 210.087 181.492V179.934C214.448 179.865 218.256 180.626 221.51 182.219C224.833 183.811 227.394 186.096 229.194 189.073C230.994 191.98 231.894 195.373 231.894 199.249C231.894 203.888 230.787 207.973 228.571 211.503C226.356 214.965 223.206 217.665 219.121 219.603C215.106 221.542 210.363 222.511 204.894 222.511Z" fill="#FF4500"/>
</svg>
