<svg width="149" height="146" viewBox="0 0 149 146" fill="none" xmlns="http://www.w3.org/2000/svg">
<path d="M64.1231 22.5941C68.0105 13.8759 80.3852 13.8759 84.2726 22.5941V22.5941C86.8121 28.2892 93.5638 30.7489 99.1715 28.0219L99.7524 27.7395C108.2 23.6314 117.492 31.5483 114.778 40.5412V40.5412C112.983 46.4871 116.649 52.7326 122.694 54.1579V54.1579C131.87 56.3214 134.13 68.4737 126.22 73.6038V73.6038C121.012 76.9818 119.761 84.0713 123.502 89.0252V89.0252C129.156 96.5123 123.118 107.132 113.793 106.102L113.216 106.039C107.031 105.356 101.53 109.977 101.135 116.187V116.187C100.535 125.625 89.0265 129.878 82.4329 123.098L82.1468 122.804C77.7931 118.327 70.6026 118.327 66.2489 122.804L65.9628 123.098C59.3692 129.878 47.8606 125.625 47.2606 116.187V116.187C46.8658 109.977 41.3643 105.356 35.1799 106.039L34.6027 106.102C25.2772 107.132 19.2393 96.5123 24.8934 89.0252V89.0252C28.6345 84.0713 27.3835 76.9818 22.1753 73.6038V73.6038C14.2657 68.4737 16.5255 56.3214 25.7014 54.1579V54.1579C31.7465 52.7326 35.4124 46.4871 33.6178 40.5412V40.5412C30.9035 31.5483 40.1956 23.6314 48.6433 27.7395L49.2241 28.0219C54.8319 30.7489 61.5836 28.2892 64.1231 22.5941V22.5941Z" fill="#FF4500"/>
<rect x="80.6808" y="93.1949" width="13.6099" height="13.2488" rx="6.62439" fill="black" stroke="black" stroke-width="2.65437"/>
<rect x="53.3272" y="93.1949" width="13.6099" height="13.2488" rx="6.62439" fill="black" stroke="black" stroke-width="2.65437"/>
<rect x="80.6808" y="74.0386" width="13.6099" height="13.2488" rx="6.62439" fill="black" stroke="black" stroke-width="2.65437"/>
<rect x="53.3272" y="74.0386" width="13.6099" height="13.2488" rx="6.62439" fill="black" stroke="black" stroke-width="2.65437"/>
<rect x="56.654" y="69.3399" width="34.6796" height="33.8506" rx="16.9253" fill="black" stroke="black" stroke-width="2.65437"/>
<rect x="80.6808" y="39.3409" width="13.6099" height="13.2488" rx="6.62439" fill="black" stroke="black" stroke-width="2.65437"/>
<path d="M87.5272 42.4878C88.0361 43.1103 88.8485 43.4099 89.6395 43.2661C89.6128 44.1109 90.0669 44.902 90.8075 45.3071C90.2436 45.9435 90.0732 46.8556 90.3944 47.6548C89.5835 47.7879 88.9069 48.3613 88.6434 49.1411C87.9557 48.7395 87.0985 48.739 86.411 49.1411C86.1472 48.3611 85.4713 47.7874 84.66 47.6548C84.9815 46.8554 84.8121 45.9436 84.2479 45.3071C84.9887 44.9021 85.4416 44.1111 85.4149 43.2661C86.2061 43.4105 87.0179 43.1101 87.5272 42.4878Z" fill="black" stroke="black" stroke-width="2.58124"/>
<rect x="53.3272" y="39.3409" width="13.6099" height="13.2488" rx="6.62439" fill="black" stroke="black" stroke-width="2.65437"/>
<path d="M60.198 43.1851C60.707 43.8075 61.5193 44.1072 62.3103 43.9634C62.2836 44.8082 62.7377 45.5993 63.4783 46.0044C62.9144 46.6407 62.744 47.5529 63.0652 48.3521C62.2544 48.4852 61.5778 49.0586 61.3142 49.8384C60.6266 49.4367 59.7693 49.4363 59.0818 49.8384C58.818 49.0584 58.1422 48.4847 57.3308 48.3521C57.6523 47.5526 57.4829 46.6409 56.9187 46.0044C57.6595 45.5994 58.1124 44.8083 58.0857 43.9634C58.8769 44.1077 59.6887 43.8074 60.198 43.1851Z" fill="black" stroke="black" stroke-width="2.58124"/>
<rect x="56.654" y="40.9663" width="34.6796" height="33.8506" rx="16.9253" fill="black" stroke="black" stroke-width="2.65437"/>
<rect x="61.4593" y="54.521" width="6.88699" height="6.67513" rx="3.33756" fill="black" stroke="black" stroke-width="2.65437"/>
<rect x="80.3035" y="54.521" width="6.88699" height="6.67513" rx="3.33756" fill="black" stroke="black" stroke-width="2.65437"/>
<path d="M74.2194 62.9351C74.3828 63.1353 74.6438 63.2317 74.8981 63.1851C74.8894 63.4566 75.0358 63.7086 75.274 63.8384C75.0918 64.0425 75.0371 64.3351 75.1403 64.5923C74.88 64.6346 74.6626 64.8188 74.5778 65.0688C74.3572 64.9402 74.0814 64.9399 73.861 65.0688C73.7758 64.8184 73.5585 64.634 73.2975 64.5923C73.4011 64.3348 73.3474 64.0427 73.1647 63.8384C73.4034 63.7087 73.5494 63.4568 73.5406 63.1851C73.795 63.232 74.0557 63.1352 74.2194 62.9351Z" fill="black" stroke="black" stroke-width="0.827943"/>
<path d="M74.1007 80.9155C74.1392 80.9155 74.17 80.9259 74.1896 80.938C74.2037 80.9467 74.2248 80.9627 74.2452 81.0083C74.8758 82.4223 76.5521 83.0337 77.9445 82.3569L78.0216 82.3198C78.0606 82.3009 78.0801 82.3027 78.09 82.3042C78.1063 82.3067 78.1315 82.3152 78.1564 82.3364C78.1809 82.3574 78.1933 82.3803 78.1984 82.396C78.2014 82.4055 78.2071 82.4254 78.1945 82.4673C77.7405 83.9719 78.6671 85.5291 80.173 85.8843C80.2147 85.8941 80.2307 85.9088 80.2394 85.9185C80.2524 85.933 80.2665 85.9578 80.2726 85.9907C80.2786 86.0237 80.274 86.0479 80.2697 86.0591C80.268 86.0633 80.2634 86.0778 80.2306 86.0991C78.9187 86.95 78.603 88.7361 79.546 89.9849C79.5707 90.0178 79.5721 90.0356 79.5724 90.0435C79.573 90.058 79.5692 90.0828 79.5538 90.1099C79.5386 90.1365 79.5197 90.1517 79.507 90.1587C79.5001 90.1624 79.484 90.171 79.4425 90.1665L79.3663 90.1577C77.8224 89.9873 76.4493 91.1417 76.3507 92.6919C76.3477 92.7381 76.3345 92.7575 76.3263 92.7681C76.3141 92.7837 76.2913 92.8026 76.2579 92.8149C76.2246 92.8272 76.1953 92.8277 76.1759 92.8237C76.1627 92.8211 76.1402 92.8144 76.1075 92.7808L76.0704 92.7427C74.9919 91.6336 73.2104 91.6336 72.132 92.7427L72.0939 92.7808C72.0615 92.814 72.0397 92.821 72.0265 92.8237C72.007 92.8277 71.9768 92.8273 71.9435 92.8149C71.9104 92.8026 71.8883 92.7836 71.8761 92.7681C71.8679 92.7575 71.8547 92.7384 71.8517 92.6919C71.7531 91.1418 70.3799 89.9875 68.8361 90.1577L68.7599 90.1665C68.7182 90.1711 68.7023 90.1624 68.6954 90.1587C68.6827 90.1518 68.6639 90.1366 68.6486 90.1099C68.6332 90.0828 68.6294 90.058 68.63 90.0435C68.6303 90.0356 68.6315 90.0179 68.6564 89.9849C69.5994 88.7362 69.2836 86.95 67.9718 86.0991C67.9388 86.0777 67.9344 86.0633 67.9327 86.0591C67.9284 86.048 67.9228 86.0238 67.9288 85.9907C67.935 85.9576 67.9499 85.933 67.963 85.9185C67.9717 85.9088 67.987 85.8941 68.0284 85.8843C69.5344 85.5292 70.4618 83.9719 70.0079 82.4673C69.9953 82.4254 70 82.4055 70.0031 82.396C70.0081 82.3803 70.0213 82.3575 70.046 82.3364C70.0706 82.3155 70.0951 82.3068 70.1115 82.3042C70.1213 82.3027 70.1415 82.3007 70.1808 82.3198L70.257 82.3569C71.6494 83.0341 73.3266 82.4225 73.9572 81.0083C73.9776 80.9627 73.9988 80.9467 74.0128 80.938C74.0323 80.926 74.0625 80.9156 74.1007 80.9155Z" fill="black" stroke="black" stroke-width="2.58124"/>
</svg>
