<svg width="148" height="149" viewBox="0 0 148 149" fill="none" xmlns="http://www.w3.org/2000/svg">
<path d="M64.1338 23.7933C68.0213 15.0752 80.3959 15.0752 84.2834 23.7933V23.7933C86.8229 29.4885 93.5745 31.9482 99.1823 29.2212L99.7632 28.9387C108.211 24.8306 117.503 32.7475 114.789 41.7404V41.7404C112.994 47.6863 116.66 53.9318 122.705 55.3571V55.3571C131.881 57.5206 134.141 69.6729 126.231 74.803V74.803C121.023 78.181 119.772 85.2706 123.513 90.2244V90.2244C129.167 97.7115 123.129 108.331 113.804 107.302L113.227 107.238C107.042 106.555 101.541 111.176 101.146 117.386V117.386C100.546 126.824 89.0372 131.077 82.4437 124.297L82.1575 124.003C77.8038 119.526 70.6134 119.526 66.2596 124.003L65.9735 124.297C59.38 131.077 47.8714 126.824 47.2713 117.386V117.386C46.8765 111.176 41.375 106.555 35.1906 107.238L34.6135 107.302C25.288 108.331 19.2501 97.7115 24.9042 90.2244V90.2244C28.6452 85.2706 27.3943 78.181 22.186 74.803V74.803C14.2765 69.6729 16.5362 57.5206 25.7122 55.3571V55.3571C31.7573 53.9318 35.4231 47.6863 33.6285 41.7404V41.7404C30.9142 32.7475 40.2063 24.8306 48.654 28.9387L49.2349 29.2212C54.8427 31.9482 61.5943 29.4885 64.1338 23.7933V23.7933Z" fill="#FF4500"/>
<rect width="6.47374" height="49.7709" rx="3.23687" transform="matrix(0.641366 0.767235 -0.781161 0.62433 83.0876 62.9258)" fill="black"/>
<path d="M94.9321 57.6005L89.9748 65.1398L95.7761 72.0795L86.9111 69.7993L81.9538 77.3386L81.4322 68.3901L72.5673 66.1099L81.1099 62.8596L80.5883 53.9111L86.3895 60.8508L94.9321 57.6005Z" fill="black"/>
</svg>
