<svg width="149" height="146" viewBox="0 0 149 146" fill="none" xmlns="http://www.w3.org/2000/svg">
<path d="M64.1231 22.5941C68.0105 13.8759 80.3852 13.8759 84.2726 22.5941V22.5941C86.8121 28.2892 93.5638 30.7489 99.1715 28.0219L99.7524 27.7395C108.2 23.6314 117.492 31.5483 114.778 40.5412V40.5412C112.983 46.4871 116.649 52.7326 122.694 54.1579V54.1579C131.87 56.3214 134.13 68.4737 126.22 73.6038V73.6038C121.012 76.9818 119.761 84.0713 123.502 89.0252V89.0252C129.156 96.5123 123.118 107.132 113.793 106.102L113.216 106.039C107.031 105.356 101.53 109.977 101.135 116.187V116.187C100.535 125.625 89.0265 129.878 82.4329 123.098L82.1468 122.804C77.7931 118.327 70.6026 118.327 66.2489 122.804L65.9628 123.098C59.3692 129.878 47.8606 125.625 47.2606 116.187V116.187C46.8658 109.977 41.3643 105.356 35.1799 106.039L34.6027 106.102C25.2772 107.132 19.2393 96.5123 24.8934 89.0252V89.0252C28.6345 84.0713 27.3835 76.9818 22.1753 73.6038V73.6038C14.2657 68.4737 16.5255 56.3214 25.7014 54.1579V54.1579C31.7465 52.7326 35.4124 46.4871 33.6178 40.5412V40.5412C30.9035 31.5483 40.1956 23.6314 48.6433 27.7395L49.2241 28.0219C54.8319 30.7489 61.5836 28.2892 64.1231 22.5941V22.5941Z" fill="#FF4500"/>
<rect x="51.2915" y="56.5288" width="45.8322" height="44.7387" rx="22.3694" fill="black" stroke="black" stroke-width="3.41301"/>
<rect x="61.0041" y="42.8533" width="26.501" height="25.8746" rx="12.9373" fill="black" stroke="black" stroke-width="1.70651"/>
<rect x="63.6457" y="45.5271" width="21.1236" height="20.6167" rx="10.3084" fill="#FF4500" stroke="black" stroke-width="1.70651"/>
<rect x="89.2117" y="63.5154" width="12.4444" height="12.1302" rx="6.0651" fill="black" stroke="black" stroke-width="1.70651"/>
<rect x="46.8533" y="63.5154" width="12.4444" height="12.1302" rx="6.0651" fill="black" stroke="black" stroke-width="1.70651"/>
<rect x="66.5469" y="52.4802" width="4.00136" height="3.87461" rx="1.93731" fill="black" stroke="black" stroke-width="1.70651"/>
<rect x="77.8198" y="52.4802" width="4.00136" height="3.87461" rx="1.93731" fill="black" stroke="black" stroke-width="1.70651"/>
<path d="M74.0005 74.9014C74.0989 74.6807 74.4118 74.6807 74.5103 74.9014C75.1688 76.3781 76.9194 77.0156 78.3735 76.3086L78.4565 76.2686C78.5191 76.2381 78.5632 76.2373 78.5952 76.2422C78.6336 76.2481 78.6788 76.2665 78.7202 76.3018C78.7617 76.3371 78.7874 76.379 78.7993 76.416C78.8092 76.4468 78.8154 76.4902 78.7954 76.5566C78.3215 78.1268 79.2883 79.7532 80.8608 80.124C80.9278 80.1398 80.9639 80.167 80.9878 80.1934C81.0161 80.2246 81.0402 80.2703 81.0503 80.3252C81.0604 80.3802 81.0532 80.4271 81.0405 80.459C81.0305 80.484 81.0113 80.5172 80.9565 80.5527C79.5876 81.4409 79.2586 83.3043 80.2427 84.6074C80.2834 84.6614 80.2912 84.7023 80.2925 84.7324C80.294 84.7693 80.2845 84.8153 80.2583 84.8613C80.2321 84.9073 80.1979 84.9395 80.1655 84.957C80.139 84.9714 80.0992 84.985 80.0317 84.9775L79.9497 84.9688C78.3378 84.7908 76.9043 85.9949 76.8013 87.6133C76.7869 87.8394 76.5111 87.9414 76.353 87.7793L76.312 87.7373C75.1856 86.579 73.3251 86.579 72.1987 87.7373L72.1577 87.7793C71.9996 87.9415 71.7239 87.8394 71.7095 87.6133C71.6065 85.9949 70.1729 84.7909 68.561 84.9688L68.479 84.9775C68.4116 84.985 68.3717 84.9714 68.3452 84.957C68.3128 84.9395 68.2776 84.9073 68.2515 84.8613C68.2255 84.8154 68.2168 84.7692 68.2183 84.7324C68.2195 84.7023 68.2273 84.6614 68.2681 84.6074C69.2522 83.3043 68.9231 81.4409 67.5542 80.5527C67.4995 80.5172 67.4802 80.484 67.4702 80.459C67.4575 80.4271 67.4504 80.3802 67.4604 80.3252C67.4706 80.2703 67.4947 80.2246 67.5229 80.1934C67.5468 80.167 67.5829 80.1398 67.6499 80.124C69.2224 79.7532 70.1892 78.1268 69.7153 76.5566C69.6954 76.4902 69.7016 76.4468 69.7114 76.416C69.7233 76.379 69.749 76.3371 69.7905 76.3018C69.8319 76.2665 69.8771 76.2481 69.9155 76.2422C69.9475 76.2373 69.9916 76.2381 70.0542 76.2686L70.1372 76.3086C71.5913 77.0155 73.342 76.3781 74.0005 74.9014Z" fill="black" stroke="black" stroke-width="2.58124"/>
</svg>
