<svg width="117" height="113" viewBox="0 0 117 113" fill="none" xmlns="http://www.w3.org/2000/svg">
<path d="M48.1231 6.5941C52.0105 -2.12406 64.3852 -2.12406 68.2726 6.5941V6.5941C70.8121 12.2892 77.5638 14.7489 83.1715 12.0219L83.7524 11.7395C92.2001 7.63142 101.492 15.5483 98.7779 24.5412V24.5412C96.9833 30.4871 100.649 36.7326 106.694 38.1579V38.1579C115.87 40.3214 118.13 52.4737 110.22 57.6038V57.6038C105.012 60.9818 103.761 68.0713 107.502 73.0252V73.0252C113.156 80.5123 107.118 91.1321 97.7929 90.1024L97.2158 90.0387C91.0314 89.3558 85.5299 93.9771 85.1351 100.187V100.187C84.535 109.625 73.0265 113.878 66.4329 107.098L66.1468 106.804C61.7931 102.327 54.6026 102.327 50.2489 106.804L49.9628 107.098C43.3692 113.878 31.8606 109.625 31.2606 100.187V100.187C30.8658 93.9771 25.3643 89.3558 19.1799 90.0387L18.6027 90.1024C9.27724 91.1321 3.23931 80.5123 8.89342 73.0252V73.0252C12.6345 68.0713 11.3835 60.9818 6.17529 57.6038V57.6038C-1.73425 52.4737 0.525496 40.3214 9.70144 38.1579V38.1579C15.7465 36.7326 19.4124 30.4871 17.6178 24.5412V24.5412C14.9035 15.5483 24.1956 7.63142 32.6433 11.7395L33.2241 12.0219C38.8319 14.7489 45.5836 12.2892 48.1231 6.5941V6.5941Z" fill="#FF4500"/>
<rect x="61.2235" y="36.334" width="4.7858" height="29.0215" fill="black" stroke="black" stroke-width="2"/>
<path d="M67.0096 29.1074C70.1577 29.1076 72.7947 31.8077 72.7947 35.2461C72.7946 38.6844 70.1576 41.3846 67.0096 41.3848C63.8614 41.3848 61.2236 38.6845 61.2235 35.2461C61.2235 31.8076 63.8613 29.1074 67.0096 29.1074Z" fill="black" stroke="black" stroke-width="2"/>
<path d="M60.7327 26.2871C62.5806 26.2873 64.1429 27.8552 64.1429 29.8701C64.1428 31.8849 62.5805 33.4519 60.7327 33.4521C58.8848 33.4521 57.3218 31.8851 57.3216 29.8701C57.3216 27.855 58.8847 26.2871 60.7327 26.2871Z" fill="black" stroke="black" stroke-width="2"/>
<path d="M73.7954 26.2871C75.6433 26.2873 77.2056 27.8552 77.2056 29.8701C77.2054 31.8849 75.6432 33.4519 73.7954 33.4521C71.9475 33.4521 70.3844 31.8851 70.3843 29.8701C70.3843 27.855 71.9474 26.2871 73.7954 26.2871Z" fill="black" stroke="black" stroke-width="2"/>
<rect x="62.6338" y="63.4512" width="3.32292" height="23.8824" rx="1.66146" fill="black" stroke="black" stroke-width="2"/>
<rect x="54.543" y="63.4512" width="2.89708" height="23.8824" rx="1.44854" fill="black" stroke="black" stroke-width="2"/>
<rect x="46.0261" y="63.4512" width="3.11" height="23.8824" rx="1.555" fill="black" stroke="black" stroke-width="2"/>
<rect x="39" y="63.4512" width="2.89708" height="23.8824" rx="1.44854" fill="black" stroke="black" stroke-width="2"/>
<path d="M52.5049 53.959C60.1426 53.9591 66.0095 59.0806 66.0098 65.0322C66.0098 70.9841 60.1428 76.1063 52.5049 76.1064C44.8669 76.1064 39 70.9842 39 65.0322C39.0003 59.0805 44.8671 53.959 52.5049 53.959Z" fill="black" stroke="black" stroke-width="2"/>
<rect x="59.1632" y="28.7232" width="2.29021" height="2.29251" rx="1.1451" fill="black" stroke="black" stroke-width="2.29021"/>
<rect x="72.7347" y="28.7232" width="2.29021" height="2.29251" rx="1.1451" fill="black" stroke="black" stroke-width="2.29021"/>
</svg>
