<svg width="117" height="113" viewBox="0 0 117 113" fill="none" xmlns="http://www.w3.org/2000/svg">
<path d="M48.1231 6.5941C52.0105 -2.12406 64.3852 -2.12406 68.2726 6.5941V6.5941C70.8121 12.2892 77.5638 14.7489 83.1715 12.0219L83.7524 11.7395C92.2001 7.63142 101.492 15.5483 98.7779 24.5412V24.5412C96.9833 30.4871 100.649 36.7326 106.694 38.1579V38.1579C115.87 40.3214 118.13 52.4737 110.22 57.6038V57.6038C105.012 60.9818 103.761 68.0713 107.502 73.0252V73.0252C113.156 80.5123 107.118 91.1321 97.7929 90.1024L97.2158 90.0387C91.0314 89.3558 85.5299 93.9771 85.1351 100.187V100.187C84.535 109.625 73.0265 113.878 66.4329 107.098L66.1468 106.804C61.7931 102.327 54.6026 102.327 50.2489 106.804L49.9628 107.098C43.3692 113.878 31.8606 109.625 31.2606 100.187V100.187C30.8658 93.9771 25.3643 89.3558 19.1799 90.0387L18.6027 90.1024C9.27724 91.1321 3.23931 80.5123 8.89342 73.0252V73.0252C12.6345 68.0713 11.3835 60.9818 6.17529 57.6038V57.6038C-1.73425 52.4737 0.525496 40.3214 9.70144 38.1579V38.1579C15.7465 36.7326 19.4124 30.4871 17.6178 24.5412V24.5412C14.9035 15.5483 24.1956 7.63142 32.6433 11.7395L33.2241 12.0219C38.8319 14.7489 45.5836 12.2892 48.1231 6.5941V6.5941Z" fill="#FF4500"/>
<rect width="6.47374" height="49.7709" rx="3.23687" transform="matrix(0.641366 0.767235 -0.781161 0.62433 68.2533 45.9258)" fill="black"/>
<path d="M80.0979 40.6005L75.1406 48.1398L80.9418 55.0795L72.0769 52.7993L67.1196 60.3386L66.598 51.3901L57.733 49.1099L66.2756 45.8596L65.754 36.9111L71.5553 43.8508L80.0979 40.6005Z" fill="black"/>
</svg>
