<svg width="149" height="149" viewBox="0 0 149 149" fill="none" xmlns="http://www.w3.org/2000/svg">
<path d="M64.1231 22.5941C68.0105 13.8759 80.3852 13.8759 84.2726 22.5941V22.5941C86.8121 28.2892 93.5638 30.7489 99.1715 28.0219L99.7524 27.7395C108.2 23.6314 117.492 31.5483 114.778 40.5412V40.5412C112.983 46.4871 116.649 52.7326 122.694 54.1579V54.1579C131.87 56.3214 134.13 68.4737 126.22 73.6038V73.6038C121.012 76.9818 119.761 84.0713 123.502 89.0252V89.0252C129.156 96.5123 123.118 107.132 113.793 106.102L113.216 106.039C107.031 105.356 101.53 109.977 101.135 116.187V116.187C100.535 125.625 89.0265 129.878 82.4329 123.098L82.1468 122.804C77.7931 118.327 70.6026 118.327 66.2489 122.804L65.9628 123.098C59.3692 129.878 47.8606 125.625 47.2606 116.187V116.187C46.8658 109.977 41.3643 105.356 35.1799 106.039L34.6027 106.102C25.2772 107.132 19.2393 96.5123 24.8934 89.0252V89.0252C28.6345 84.0713 27.3835 76.9818 22.1753 73.6038V73.6038C14.2657 68.4737 16.5255 56.3214 25.7014 54.1579V54.1579C31.7465 52.7326 35.4124 46.4871 33.6178 40.5412V40.5412C30.9035 31.5483 40.1956 23.6314 48.6433 27.7395L49.2241 28.0219C54.8319 30.7489 61.5836 28.2892 64.1231 22.5941V22.5941Z" fill="#FF4500"/>
<rect x="55.7948" y="61.8096" width="35.3839" height="16.1123" fill="black"/>
<path d="M97.4337 87.6885L91.056 73.6562H55.6721L50.6348 85.622L57.515 92.9673C57.515 92.9673 62.8817 86.2784 66.2381 84.5557C69.0543 83.1104 71.0355 82.7961 74.224 82.8971C76.9921 82.9848 78.654 83.3107 81.1042 84.5557C84.6505 86.3578 88.6901 93.2298 88.6901 93.2298L97.4337 87.6885Z" fill="black"/>
<path d="M101.499 76.5001L91.1785 73.1829L56.0404 73.5383L55.4261 65.956C55.4261 65.956 54.5637 68.7725 53.0917 69.7472C51.3835 70.8781 49.6736 71.092 47.8087 70.221C47.0399 69.862 46.0887 68.9178 46.0887 68.9178L44 51.8578C44 51.8578 47.8761 49.0402 50.7574 48.0666L50.8198 48.0455C52.7717 47.3859 53.9547 46.9862 56.0404 47.0004C58.6831 47.0184 60.2172 47.5835 62.552 48.7775C64.8097 49.932 65.9898 50.8836 67.5893 52.8055C70.032 55.7408 71.1522 61.8095 71.1522 61.8095L73.6094 64.6528C73.6094 64.6528 81.9111 64.9324 85.6498 61.691C86.7644 60.7246 87.6843 60.1116 88.5984 58.9661C89.1427 58.2841 89.1029 58.166 89.827 57.6629C90.7814 56.9999 91.1146 56.5979 92.2842 56.4782C93.5248 56.3513 94.8926 56.2691 96.0929 56.5967C98.118 57.1493 98.7538 58.5331 100.024 60.1509C104.037 65.2597 101.499 76.5001 101.499 76.5001Z" fill="black"/>
<ellipse cx="94.0041" cy="63.2313" rx="8.23166" ry="7.81921" fill="black"/>
<ellipse cx="48.1772" cy="85.5036" rx="2.21149" ry="2.13251" fill="black"/>
<ellipse cx="99.9012" cy="85.8602" rx="2.08863" ry="2.01404" fill="black"/>
<path d="M59.4806 91.9011C55.016 89.7161 49.6518 83.9634 49.6518 83.9634L46.826 87.1621C46.826 87.1621 53.1495 93.368 58.252 95.6922C63.7486 98.1958 67.408 98.7268 73.4867 98.7725C79.8004 98.82 83.5751 98.1844 89.3357 95.6922C94.6945 93.3738 101.499 87.1621 101.499 87.1621L98.5503 84.4373C98.5503 84.4373 92.466 89.8294 87.7386 91.9011C82.3415 94.2661 78.7992 94.987 72.8724 94.8629C67.5081 94.7505 64.2653 94.2426 59.4806 91.9011Z" fill="black"/>
<path d="M102.235 70.9318V62.9941L91.1778 63.1126L92.1607 70.221L102.235 70.9318Z" fill="black"/>
</svg>
