<svg width="149" height="146" viewBox="0 0 149 146" fill="none" xmlns="http://www.w3.org/2000/svg">
<path d="M64.1231 22.5941C68.0105 13.8759 80.3852 13.8759 84.2726 22.5941V22.5941C86.8121 28.2892 93.5638 30.7489 99.1715 28.0219L99.7524 27.7395C108.2 23.6314 117.492 31.5483 114.778 40.5412V40.5412C112.983 46.4871 116.649 52.7326 122.694 54.1579V54.1579C131.87 56.3214 134.13 68.4737 126.22 73.6038V73.6038C121.012 76.9818 119.761 84.0713 123.502 89.0252V89.0252C129.156 96.5123 123.118 107.132 113.793 106.102L113.216 106.039C107.031 105.356 101.53 109.977 101.135 116.187V116.187C100.535 125.625 89.0265 129.878 82.4329 123.098L82.1468 122.804C77.7931 118.327 70.6026 118.327 66.2489 122.804L65.9628 123.098C59.3692 129.878 47.8606 125.625 47.2606 116.187V116.187C46.8658 109.977 41.3643 105.356 35.1799 106.039L34.6027 106.102C25.2772 107.132 19.2393 96.5123 24.8934 89.0252V89.0252C28.6345 84.0713 27.3835 76.9818 22.1753 73.6038V73.6038C14.2657 68.4737 16.5255 56.3214 25.7014 54.1579V54.1579C31.7465 52.7326 35.4124 46.4871 33.6178 40.5412V40.5412C30.9035 31.5483 40.1956 23.6314 48.6433 27.7395L49.2241 28.0219C54.8319 30.7489 61.5836 28.2892 64.1231 22.5941V22.5941Z" fill="#FF4500"/>
<rect x="100.569" y="99.8838" width="16.8562" height="17.6763" transform="rotate(-180 100.569 99.8838)" fill="black"/>
<rect x="82.7125" y="99.8838" width="16.8562" height="17.6763" transform="rotate(-180 82.7125 99.8838)" fill="black"/>
<rect x="64.8563" y="99.8838" width="16.8562" height="17.6763" transform="rotate(-180 64.8563 99.8838)" fill="black"/>
<rect x="91.7127" y="81.208" width="16.8562" height="17.6763" transform="rotate(-180 91.7127 81.208)" fill="black"/>
<rect x="73.8563" y="81.208" width="16.8562" height="17.6763" transform="rotate(-180 73.8563 81.208)" fill="black"/>
<rect x="82.7125" y="62.5303" width="16.8562" height="17.6763" transform="rotate(-180 82.7125 62.5303)" fill="black"/>
</svg>
