<svg width="768" height="186" viewBox="0 0 768 186" fill="none" xmlns="http://www.w3.org/2000/svg">
<rect x="614.806" y="65" width="153.194" height="96" rx="20" fill="#6F4BC3"/>
<rect x="381.463" y="65" width="153.194" height="96" rx="20" fill="#6F4BC3"/>
<rect x="190.732" y="65" width="153.194" height="96" rx="20" fill="#6F4BC3"/>
<rect y="65" width="153.194" height="96" rx="20" fill="#6F4BC3"/>
<rect x="566.109" y="161" width="151" height="97.395" rx="20" transform="rotate(-90 566.109 161)" fill="#6F4BC3"/>
<rect x="556.977" width="117.686" height="20" rx="10" fill="#6F4BC3"/>
<rect x="730.463" y="113" width="75" height="17.247" rx="8.62351" transform="rotate(-90 730.463 113)" fill="#6F4BC3"/>
<rect x="726.404" y="47" width="18" height="25.3633" rx="9" transform="rotate(-90 726.404 47)" fill="#6F4BC3"/>
<rect x="65.944" y="129" width="513.353" height="10" fill="#6F4BC3"/>
<rect x="701.224" y="135.638" width="50.362" height="50.362" rx="25" fill="#6F4BC3"/>
<rect x="579.479" y="135.638" width="50.362" height="50.362" rx="25" fill="#6F4BC3"/>
<rect x="469.91" y="135.638" width="50.362" height="50.362" rx="25" fill="#6F4BC3"/>
<rect x="280.193" y="135.638" width="50.362" height="50.362" rx="25" fill="#6F4BC3"/>
<rect x="89.4611" y="135.638" width="50.362" height="50.362" rx="25" fill="#6F4BC3"/>
<rect x="390.777" y="135.638" width="50.362" height="50.362" rx="25" fill="#6F4BC3"/>
<rect x="202.074" y="135.638" width="50.362" height="50.362" rx="25" fill="#6F4BC3"/>
<rect x="15.4006" y="135.638" width="50.362" height="50.362" rx="25" fill="#6F4BC3"/>
</svg>
